<?xml version="1.0" encoding="UTF-8" standalone="no"?>
<!-- Created with Inkscape (http://www.inkscape.org/) -->
<svg xmlns:rdf="http://www.w3.org/1999/02/22-rdf-syntax-ns#" xmlns="http://www.w3.org/2000/svg" height="186.79" width="668.98" version="1.1" xmlns:cc="http://creativecommons.org/ns#" xmlns:dc="http://purl.org/dc/elements/1.1/" viewBox="0 0 668.98431 186.78677">
 <metadata>
  <rdf:RDF>
   <cc:Work rdf:about="">
    <dc:format>image/svg+xml</dc:format>
    <dc:type rdf:resource="http://purl.org/dc/dcmitype/StillImage"/>
    <dc:title/>
   </cc:Work>
  </rdf:RDF>
 </metadata>
 <path d="m78.366 186.46c-21.466-1.76-42.385-11.56-57.986-27.16-4.975-4.97-9.953-11.07-9.836-12.06 0.084-0.72 70.997-82.019 71.535-82.019v65.986h89.446c0.43882 0.43882-3.6866 8.4401-6.9776 13.378-3.834 5.7517-7.4879 10.223-12.157 14.877-19.577 19.514-46.34 29.276-74.024 27zm125.84-52.928-0.0633-40.804c-0.0712-45.878-0.0701-42.316 2.3529-47.617 2.2902-5.0102 5.5056-8.465 9.8886-10.625 2.3448-1.1555 3.4354-1.704 8.0145-1.8748h77.207v23.408l-56.296 0.30318c-4.3681 0.17522-5.3639 0.54188-7.0009 1.2609-1.7786 0.78133-2.7465 1.6662-3.6311 3.3196-0.30098 0.5626-0.40394 1.0132-0.50046 1.7979v8.1221h67.429v24.64l-67.429 0.32v37.75h-29.971zm326.08 0c-0.0884-0.23054-0.11923-17.552-0.0684-39.367l0.0925-39.664 0.87747-3.2c2.5897-9.4447 7.9533-15.932 15.277-18.477l2.08-0.21244h101.76l2.2961 0.2115c8.4008 2.6414 14.702 11.698 16.086 23.12 0.26365 2.1751 0.34116 13.762 0.27293 40.798l-0.0953 36.791h-28.64c-0.11002-22.717 0.10517-45.434 0-68.151l-1.0431-1.7973c-1.9854-4.0409-6.4105-7.0212-11.407-7.6828-1.3896-0.18398-4.3992-0.06499-7.1868-0.06499h-5.8502v77.696c-9.4353-0.0555-19.838 0.0557-29.273 0v-77.694h-7.8c-6.1436 0-6.899 0.0071-8.8069 0.66698-3.8819 1.3426-6.5476 4.0353-8.387 7.3037l-0.88611 1.5745c-0.10336 22.717 0.1082 45.434 0 68.151h-29.299zm-224.46 0c12.09-18.09 21.415-31.764 34.544-51.167l-34.43-49.752h30.438l24.262 34.13 24.066-34.13h29.019l-33.563 49.908 34.462 51.013h-29.844l-24.396-35.663-24.996 35.663h-29.564zm126.41 0c-7.6132-1.3926-14.235-7.9366-15.854-15.672-0.72509-3.4654-0.70624-65.971 0.0211-69.491 1.5079-7.3001 6.017-12.861 13.572-15.758h76.341c5.9297 1.3107 11.163 5.5785 13.721 10.986 1.6348 3.4556 1.8578 4.9257 2.0214 13.325 0.1376 7.0647 0.0986 7.4489-0.38464 7.9321h-24.812c0-0.99324-1.6055-4.0319-3.0971-5.4272-1.4864-1.3903-2.0244-2.2125-4.8747-2.5368h-37.628l-1.4836 0.58768c-2.3978 1.193-3.9977 2.7822-5.143 5.1086l-1.0534 2.1398v37.774l0.84326 1.7984c1.143 2.4377 2.853 4.2453 5.0254 5.3121l1.8114 0.88953h38.4l1.5156-0.75316c3.2152-1.5978 5.6308-5.0639 5.9319-8.5118 0.0829-0.94959 0.34992-1.7119 0.64797-1.9471h23.915c0.4825 0.48251 0.52052 1.4649 0.38244 9.2679-0.1697 9.5889-0.30407 10.42-2.3575 14.577-2.2382 4.5313-7.169 8.8183-12.435 10.398h-75.027zm-340.26-13.01v-62.352h-91.983c-0.22271-0.66519 5.3337-11.427 8.1314-15.67 14.573-22.105 37.373-37.001 63.128-41.243 25.416-4.1866 50.896 2.1478 71.68 17.82 6.4992 4.9007 15.661 14.39 19.853 20.562 0.69709 1.0265 1.2674 2.0088 1.2674 2.1828l-72.077 78.915v-0.21566z" stroke-width="0.32" fill="#38508e"/>
</svg>
